<?xml version="1.0" encoding="utf-8"?>
<!-- Generator: Adobe Illustrator 24.1.3, SVG Export Plug-In . SVG Version: 6.00 Build 0)  -->
<svg version="1.1" id="Layer_1" xmlns="http://www.w3.org/2000/svg" xmlns:xlink="http://www.w3.org/1999/xlink" x="0px" y="0px"
	 viewBox="0 0 103.68 111.68" style="enable-background:new 0 0 103.68 111.68;" xml:space="preserve">
<style type="text/css">
	.st0{fill:#A8DADC;}
	.st1{fill:#E63946;}
	.st2{fill:#F1FAEE;}
	.st3{fill:#457B9D;}
	.st4{fill:#1D3557;}
	.st5{fill:none;stroke:#1D3557;stroke-width:2;stroke-miterlimit:10;}
	.st6{fill:none;stroke:#1D3557;stroke-width:7;stroke-miterlimit:10;}
</style>
<g>
	<g>
		<path class="st1" d="M35.42,91.44c-4.58,0.74-9.06-1.6-11.36-5.73c-0.01-0.02-0.02-0.04-0.04-0.07L7.04,55.47
			c-6.31-11.21-3.01-25.45,7.51-32.45L37.82,7.54c14.36-9.55,33.76-2.05,38.53,14.89l8.22,29.21c2.17,7.73-1.25,15.91-8.19,19.59
			L42.97,88.91C40.6,90.16,38.06,91.02,35.42,91.44L35.42,91.44z"/>
	</g>
	<path class="st4" d="M12.02,108.34c-0.19,0-0.38-0.06-0.54-0.19c-0.3-0.24-0.4-0.64-0.25-0.99l6.95-16.08
		c0.49-2.3,0.44-4.73-0.16-7.02l-8.45-32.4c-3.21-12.3,4.05-24.82,16.53-28.52l26.99-8c8.29-2.46,17.01-0.92,23.93,4.23
		c6.6,4.91,10.4,12.33,10.44,20.36l0.12,29.14c0.03,7.92-5.75,14.8-13.76,16.36L32.39,93.3l-19.85,14.86
		C12.38,108.28,12.2,108.34,12.02,108.34z M26.24,23.65l0.15,0.5C14.46,27.68,7.51,39.66,10.57,51.41l8.45,32.4
		c0.64,2.46,0.7,5.07,0.16,7.55l-0.03,0.1l-6.68,15.47l19.49-14.59l0.12-0.02l41.54-8.08c7.52-1.46,12.95-7.91,12.92-15.34
		l-0.12-29.14c-0.03-7.7-3.68-14.82-10.02-19.53c-6.65-4.95-15.04-6.43-23.01-4.07l-26.99,8L26.24,23.65z"/>
	<g>
		<path class="st2" d="M80.98,71.51c-0.95,0.13-1.92,0.22-2.87,0.31c-17.52,1.67-35.03,3.35-52.55,5.02
			c-2.44,0.23-4.92,0.46-7.29,0.01s-4.67-1.71-5.63-3.73c-0.52-1.09-0.61-2.32-0.73-3.52c-0.35-3.73-0.96-7.43-1.82-11.08
			c-0.76-3.24-1.67-6.78,0.01-9.79c2.63-4.69,10.54-6.25,15.57-7.36c2.25-0.5,4.51-0.99,6.76-1.49c4.37-0.96,8.74-1.92,13.11-2.88
			c8.74-1.92,17.48-3.84,26.21-5.77c2.34-0.51,4.71-1.03,7.09-0.95c2.38,0.08,4.82,0.84,6.31,2.49c1.44,1.6,1.82,3.78,2.14,5.85
			c1.11,7.16,2.21,14.33,3.29,21.49c0.31,2.05,0.6,4.21-0.28,6.15c-0.91,2.02-2.98,3.47-5.21,4.27
			C83.77,71.04,82.38,71.32,80.98,71.51z"/>
	</g>
	<g>
		<g>
			<path class="st4" d="M33.5,46.74c1,0,1.73,0.41,2.2,1.22c0.05,0.22,0.07,0.4,0.07,0.55v1.46c0,3.17-0.06,8.46-0.18,15.85
				c0,0.65-0.45,1.01-1.35,1.1c-0.82,0-1.22-0.37-1.22-1.1c-0.08-0.32-0.2-2.6-0.37-6.85c-4.31-0.12-6.75-0.2-7.33-0.24
				c0,0.04-0.02,0.06-0.07,0.06c0.17,3.47,0.25,5.59,0.25,6.36c0,0.79-0.47,1.22-1.41,1.28c-1.06,0-1.59-0.76-1.59-2.27
				c-0.17-2.92-0.39-8.28-0.68-16.08c0-0.45,0.3-0.7,0.92-0.75c1.39,0.13,2.08,0.66,2.08,1.59c0.08,1.36,0.13,2.83,0.13,4.41v2.45
				c4.52,0.12,7.11,0.21,7.76,0.25l0.07-0.13v-8.26C32.77,47.05,33.01,46.74,33.5,46.74z"/>
			<path class="st4" d="M44.92,52.51h0.49c3.13,0,5.27,1.15,6.43,3.46c0.41,0.92,0.62,1.85,0.62,2.79v0.68
				c0,0.83-0.1,1.24-0.31,1.24l-10.46-0.62l-0.06,0.13c0,1.38,0.78,2.45,2.35,3.21c0.63,0.21,1.39,0.31,2.28,0.31
				c0.86,0,2.35-0.18,4.46-0.55c0.82,0,1.35,0.58,1.6,1.73c0,1.05-1.2,1.73-3.59,2.04h-1.37c-4.19,0-6.82-1.32-7.91-3.96
				c-0.41-0.96-0.62-2.2-0.62-3.72c0-3.73,1.61-5.94,4.83-6.62C44.09,52.55,44.51,52.51,44.92,52.51z M42.75,57.21v0.1
				c2.02,0.38,4.17,0.56,6.46,0.56h0.46v-0.1c-0.23-0.69-0.69-1.25-1.38-1.69c-0.74-0.47-1.57-0.7-2.49-0.7h-0.25
				C44.21,55.38,43.28,55.99,42.75,57.21z"/>
			<path class="st4" d="M55.09,46.74c1.43,0.08,2.29,0.59,2.59,1.55c0.12,1.29,0.18,3.59,0.18,6.88v5.36c0,4.22-0.1,6.33-0.31,6.33
				l-0.44,0.06h-0.73c-0.83,0-1.24-0.28-1.24-0.83c-0.37-4.75-0.55-10.12-0.55-16.1c0-2.17,0.12-3.25,0.37-3.25H55.09z"/>
			<path class="st4" d="M60.64,46.74c1.43,0.08,2.29,0.59,2.59,1.55c0.12,1.29,0.18,3.59,0.18,6.88v5.36c0,4.22-0.1,6.33-0.31,6.33
				l-0.44,0.06h-0.73c-0.83,0-1.24-0.28-1.24-0.83c-0.37-4.75-0.55-10.12-0.55-16.1c0-2.17,0.12-3.25,0.37-3.25H60.64z"/>
			<path class="st4" d="M72.75,52.53c1.84,0,3.63,1.34,5.38,4.01c0.66,1.26,0.99,2.39,0.99,3.41v0.93c0,2.72-1.63,4.59-4.88,5.62
				c-0.94,0.29-1.7,0.44-2.28,0.44h-1.37c-2.16,0-3.68-1.79-4.57-5.38c-0.17-0.9-0.27-1.77-0.31-2.6c0-2.02,1.54-3.95,4.63-5.8
				C71.37,52.73,72.18,52.53,72.75,52.53z M68.54,59.63c0,1.76,0.83,3.06,2.48,3.89c0.38,0.13,0.73,0.2,1.04,0.2h0.13
				c1.42,0,2.63-0.68,3.65-2.04c0.17-0.4,0.25-0.69,0.25-0.87v-0.49c0-1.44-0.56-2.71-1.67-3.83c-0.47-0.33-1-0.49-1.6-0.49h-0.68
				c-1.5,0-2.64,0.76-3.41,2.28C68.6,58.85,68.54,59.31,68.54,59.63z"/>
		</g>
	</g>
	<g>
		<polygon class="st4" points="93.69,6.64 97.97,9.53 88.95,16.89 		"/>
		<polygon class="st4" points="86.88,4.96 90.87,5.93 85.98,13.74 		"/>
		<polygon class="st4" points="98.84,11.72 99.84,13.09 96.24,14.47 		"/>
	</g>
</g>
</svg>
