<?xml version="1.0" encoding="utf-8"?>
<!-- Generator: Adobe Illustrator 24.1.3, SVG Export Plug-In . SVG Version: 6.00 Build 0)  -->
<svg version="1.1" id="Layer_1" xmlns="http://www.w3.org/2000/svg" xmlns:xlink="http://www.w3.org/1999/xlink" x="0px" y="0px"
	 viewBox="0 0 200 200" style="enable-background:new 0 0 200 200;" xml:space="preserve">
<style type="text/css">
	.st0{fill:#E63946;}
	.st1{fill:#1D3557;}
	.st2{fill:#F1FAEE;}
	.st3{fill:none;stroke:#E63946;stroke-width:5;stroke-miterlimit:10;}
	.st4{fill:none;stroke:#F1FAEE;stroke-width:5;stroke-miterlimit:10;}
	.st5{fill:#457B9D;}
	.st6{fill:#A8DADC;}
</style>
<g>
	<g>
		<rect x="0.5" y="0.5" class="st1" width="199.5" height="199.5"/>
		<path class="st5" d="M191.09,9.41v181.69H9.41V9.41H191.09 M200,0.5H0.5V200H200V0.5L200,0.5z"/>
	</g>
	<g>
		<path class="st2" d="M54.66,92.31h17.25v11.43H54.66v23.42h21.71v11.43H42.1V58.6h34.28v11.43H54.66V92.31z"/>
		<path class="st2" d="M80.48,58.6h38.85v11.43h-13.14v68.55H93.62V70.03H80.48V58.6z"/>
		<path class="st2" d="M123.21,77.8c0-6.47,1.54-11.44,4.63-14.91c3.08-3.47,7.71-5.2,13.88-5.2c6.17,0,10.8,1.73,13.88,5.2
			c3.08,3.47,4.63,8.44,4.63,14.91v2.51h-11.88V77c0-2.89-0.55-4.93-1.66-6.11c-1.1-1.18-2.65-1.77-4.63-1.77
			c-1.98,0-3.52,0.59-4.63,1.77c-1.1,1.18-1.66,3.22-1.66,6.11c0,2.74,0.61,5.16,1.83,7.26c1.22,2.1,2.74,4.07,4.57,5.94
			c1.83,1.87,3.79,3.73,5.88,5.6c2.09,1.87,4.06,3.9,5.88,6.11c1.83,2.21,3.35,4.72,4.57,7.54c1.22,2.82,1.83,6.13,1.83,9.94
			c0,6.47-1.58,11.44-4.74,14.91c-3.16,3.47-7.83,5.2-14,5.2s-10.84-1.73-14-5.2c-3.16-3.47-4.74-8.43-4.74-14.91v-4.91h11.88v5.71
			c0,2.9,0.59,4.91,1.77,6.06c1.18,1.14,2.76,1.71,4.74,1.71c1.98,0,3.56-0.57,4.74-1.71c1.18-1.14,1.77-3.16,1.77-6.06
			c0-2.74-0.61-5.16-1.83-7.25c-1.22-2.09-2.74-4.07-4.57-5.94c-1.83-1.86-3.79-3.73-5.88-5.6c-2.1-1.86-4.05-3.9-5.88-6.11
			c-1.83-2.21-3.35-4.72-4.57-7.54C123.82,84.92,123.21,81.61,123.21,77.8z"/>
	</g>
</g>
</svg>
