<svg width="36" height="25" viewBox="0 0 36 25" fill="none" xmlns="http://www.w3.org/2000/svg">
<path fill-rule="evenodd" clip-rule="evenodd" d="M31.4063 1.40828C32.9245 1.80835 34.1255 2.98637 34.5334 4.47553C35.2811 7.18717 35.3038 12.8105 35.3038 12.8105C35.3038 12.8105 35.3038 18.456 34.556 21.1454C34.1482 22.6346 32.9472 23.8126 31.429 24.2127C28.6872 24.9462 17.6519 24.9462 17.6519 24.9462C17.6519 24.9462 6.61663 24.9462 3.87481 24.2127C2.35661 23.8126 1.15565 22.6346 0.74777 21.1454C0 18.4338 0 12.8105 0 12.8105C0 12.8105 0 7.18717 0.725109 4.49777C1.13298 3.00859 2.33395 1.83059 3.85215 1.43051C6.59397 0.697026 17.6292 0.674805 17.6292 0.674805C17.6292 0.674805 28.6645 0.674805 31.4063 1.40828ZM23.2715 12.8105L14.117 18.0115V7.60948L23.2715 12.8105Z" fill="#A8DADC"/>
</svg>
