<svg width="61" height="80" viewBox="0 0 61 80" fill="none" xmlns="http://www.w3.org/2000/svg">
<path d="M49.9548 34.7894C42.0853 38.8881 34.1065 60.5429 31.1008 70.8579C31.1008 58.7258 16.4821 43.5332 9.17272 37.4535C20.4851 33.6827 28.5049 16.3452 31.1008 8.14781C31.1008 13.5581 43.6701 28.1631 49.9548 34.7894Z" fill="#E63946"/>
<path d="M31.9205 77.0063C33.3578 62.5243 40.6165 33.5601 58.1522 33.5601" stroke="#1D3557" stroke-width="4" stroke-linecap="round"/>
<path d="M31.9205 2C30.281 13.7496 22.0016 37.2488 2 37.2488" stroke="#1D3557" stroke-width="4" stroke-linecap="round"/>
<path d="M31.9205 77.416C30.281 64.0269 22.0017 37.2488 2 37.2488" stroke="#1D3557" stroke-width="4" stroke-linecap="round"/>
<path d="M31.9205 2C33.3578 12.52 40.6165 33.56 58.1522 33.56" stroke="#1D3557" stroke-width="4" stroke-linecap="round"/>
</svg>
