<?xml version="1.0" encoding="utf-8"?>
<!-- Generator: Adobe Illustrator 24.1.3, SVG Export Plug-In . SVG Version: 6.00 Build 0)  -->
<svg version="1.1" id="Layer_1" xmlns="http://www.w3.org/2000/svg" xmlns:xlink="http://www.w3.org/1999/xlink" x="0px" y="0px"
	 viewBox="0 0 200 200" style="enable-background:new 0 0 200 200;" xml:space="preserve">
<style type="text/css">
	.st0{fill:#E63946;}
	.st1{fill:#1D3557;}
	.st2{fill:#F1FAEE;}
	.st3{fill:none;stroke:#E63946;stroke-width:5;stroke-miterlimit:10;}
	.st4{fill:none;stroke:#F1FAEE;stroke-width:5;stroke-miterlimit:10;}
	.st5{fill:#457B9D;}
	.st6{fill:#A8DADC;}
</style>
<g>
	<g>
		<rect x="0.5" y="0.5" class="st5" width="199.5" height="199.5"/>
		<path class="st1" d="M191.09,9.41v181.69H9.41V9.41H191.09 M200,0.5H0.5V200H200V0.5L200,0.5z"/>
	</g>
	<g>
		<path class="st2" d="M135.83,78.37l4.65,13.95l4.93-1.64c1.75-0.58,3.38,1.13,2.72,2.85l-3.51,9.13l7.24,15.51l4.5-2
			c1.77-0.79,3.61,0.96,2.92,2.77l-3.28,8.53l7.93,14.98c0.82,1.54,0.53,3.44-0.7,4.67l-3.92,3.92c-1.73,1.73-4.6,1.5-6.04-0.48
			l-37.58-52.03l-37.21,35.15l4.29,22.39c0.22,1.17-0.22,2.37-1.15,3.11l-5.62,4.5c-1.63,1.3-4.05,0.73-4.92-1.16l-9.4-20.37
			c-0.67-1.45-1.83-2.61-3.28-3.28l-20.37-9.4c-1.89-0.87-2.46-3.29-1.16-4.92l4.5-5.62c0.74-0.93,1.94-1.37,3.11-1.15l22.39,4.29
			l35.15-37.21L49.94,47.25c-1.99-1.43-2.22-4.31-0.48-6.04l3.92-3.92c1.23-1.23,3.13-1.52,4.67-0.7l14.1,7.46
			c0.56,0.29,1.21,0.33,1.8,0.11l7.61-2.93c1.81-0.7,3.56,1.14,2.77,2.92L83.2,46.7c-0.48,1.08-0.01,2.36,1.07,2.86L97,55.5
			c0.54,0.25,1.15,0.27,1.7,0.06l8.27-3.18c1.72-0.66,3.43,0.98,2.85,2.72l-0.95,2.86c-0.38,1.14,0.24,2.37,1.38,2.75l11.89,3.96
			l37.78-24.95c0.94-0.62,2.05,0.51,1.42,1.44L135.83,78.37z"/>
	</g>
</g>
</svg>
