<svg width="1421" height="1616" viewBox="0 0 1421 1616" fill="none" xmlns="http://www.w3.org/2000/svg">
<path d="M2.16057 -23.6368C57.8835 123.045 226.721 361.174 521.5 284M521.5 284C550.754 276.341 588.11 261.565 619.707 247.385C654.35 231.839 677.005 198.198 682.422 160.616L687.658 124.294C693.578 83.2246 655.789 53.4253 615.5 43.4999C590.577 37.36 558.247 55.4465 542.677 65.6063C536.424 69.6862 530.852 74.6479 525.573 79.9272V79.9272C511.301 94.1991 499.286 110.924 495.945 130.829C491.153 159.386 490.779 198.032 501.478 223.992C508.987 242.209 511.029 265.173 521.5 284ZM521.5 284C584.179 396.701 707.493 502.292 885.182 441.553C994.944 403.918 1083.15 395.57 1152.54 403.73C1319.55 423.37 1372.6 621.02 1326.62 782.769C1301.85 869.9 1261.16 963.126 1197.61 1047.22C1094.02 1184.31 965.319 1264.12 993.062 1433.7V1433.7C1015.47 1570.64 1157.37 1716.86 1296 1722.97C1422.68 1728.56 1590.18 1709.89 1777.5 1632.5" stroke="#457B9D" stroke-width="3" stroke-dasharray="15 15"/>
</svg>
