<svg width="33" height="34" viewBox="0 0 33 34" fill="none" xmlns="http://www.w3.org/2000/svg">
<path fill-rule="evenodd" clip-rule="evenodd" d="M16.7817 5.04248C13.4856 5.04248 13.073 5.05623 11.7785 5.11529C10.4865 5.17435 9.6038 5.37985 8.83197 5.68001C8.02293 5.98421 7.28912 6.46155 6.68234 7.07966C6.06522 7.68574 5.58759 8.41903 5.28269 9.22848C4.98415 10.0003 4.77785 10.8838 4.71879 12.1758C4.66054 13.4695 4.64597 13.8813 4.64597 17.1782C4.64597 20.475 4.65973 20.8868 4.71879 22.1813C4.77785 23.4733 4.98335 24.356 5.2835 25.1278C5.5877 25.9369 6.06504 26.6707 6.68315 27.2775C7.28925 27.8946 8.02253 28.3722 8.83197 28.6771C9.6038 28.9765 10.4865 29.182 11.7785 29.241C13.073 29.3001 13.4856 29.3138 16.7817 29.3138C20.0777 29.3138 20.4903 29.3001 21.7848 29.241C23.0768 29.182 23.9595 28.9765 24.7313 28.6763C25.5404 28.3721 26.2742 27.8948 26.881 27.2767C27.4981 26.6706 27.9757 25.9373 28.2806 25.1278C28.58 24.356 28.7855 23.4733 28.8445 22.1813C28.9036 20.8868 28.9173 20.4742 28.9173 17.1782C28.9173 13.8821 28.9036 13.4695 28.8445 12.175C28.7855 10.883 28.58 10.0003 28.2798 9.22848C27.9751 8.41868 27.4975 7.68508 26.8802 7.07885C26.2741 6.46173 25.5408 5.98409 24.7313 5.6792C23.9595 5.38066 23.076 5.17435 21.784 5.11529C20.4903 5.05704 20.0785 5.04248 16.7817 5.04248ZM16.7817 7.22933C20.0219 7.22933 20.4062 7.24147 21.6861 7.29972C22.8689 7.35392 23.5113 7.55052 23.9393 7.71799C24.5056 7.93724 24.9101 8.20099 25.3349 8.62493C25.7596 9.04968 26.0226 9.45421 26.2418 10.0205C26.4085 10.4485 26.6059 11.0909 26.6601 12.2737C26.7183 13.5536 26.7305 13.9379 26.7305 17.1782C26.7305 20.4184 26.7183 20.8027 26.6601 22.0826C26.6059 23.2654 26.4093 23.9078 26.2418 24.3358C26.0476 24.8629 25.7377 25.3398 25.3349 25.7314C24.9434 26.1343 24.4665 26.4442 23.9393 26.6383C23.5113 26.805 22.8689 27.0024 21.6861 27.0566C20.4062 27.1149 20.0227 27.127 16.7817 27.127C13.5406 27.127 13.1571 27.1149 11.8772 27.0566C10.6944 27.0024 10.052 26.8058 9.62403 26.6383C9.0969 26.4441 8.62001 26.1342 8.22843 25.7314C7.82566 25.3398 7.51576 24.8629 7.32149 24.3358C7.15482 23.9078 6.95742 23.2654 6.90321 22.0826C6.84496 20.8027 6.83282 20.4184 6.83282 17.1782C6.83282 13.9379 6.84496 13.5536 6.90321 12.2737C6.95742 11.0909 7.15401 10.4485 7.32149 10.0205C7.54074 9.45421 7.80449 9.04968 8.22843 8.62493C8.61996 8.22207 9.09686 7.91214 9.62403 7.71799C10.052 7.55133 10.6944 7.35392 11.8772 7.29972C13.1571 7.24147 13.5414 7.22933 16.7817 7.22933Z" fill="#A8DADC"/>
<path fill-rule="evenodd" clip-rule="evenodd" d="M16.7817 21.2273C16.2499 21.2273 15.7233 21.1226 15.2321 20.9191C14.7408 20.7156 14.2944 20.4173 13.9184 20.0413C13.5424 19.6653 13.2441 19.2189 13.0406 18.7276C12.8371 18.2363 12.7324 17.7098 12.7324 17.178C12.7324 16.6463 12.8371 16.1197 13.0406 15.6284C13.2441 15.1372 13.5424 14.6908 13.9184 14.3148C14.2944 13.9388 14.7408 13.6405 15.2321 13.437C15.7233 13.2335 16.2499 13.1288 16.7817 13.1288C17.8556 13.1288 18.8855 13.5554 19.6449 14.3148C20.4043 15.0741 20.8309 16.1041 20.8309 17.178C20.8309 18.252 20.4043 19.2819 19.6449 20.0413C18.8855 20.8007 17.8556 21.2273 16.7817 21.2273ZM16.7817 10.9403C15.1273 10.9403 13.5407 11.5975 12.3709 12.7673C11.2011 13.9371 10.5439 15.5237 10.5439 17.178C10.5439 18.8324 11.2011 20.419 12.3709 21.5888C13.5407 22.7586 15.1273 23.4158 16.7817 23.4158C18.436 23.4158 20.0226 22.7586 21.1924 21.5888C22.3622 20.419 23.0194 18.8324 23.0194 17.178C23.0194 15.5237 22.3622 13.9371 21.1924 12.7673C20.0226 11.5975 18.436 10.9403 16.7817 10.9403ZM24.8341 10.827C24.8341 11.2181 24.6787 11.5931 24.4022 11.8696C24.1257 12.1462 23.7507 12.3015 23.3596 12.3015C22.9685 12.3015 22.5935 12.1462 22.317 11.8696C22.0405 11.5931 21.8851 11.2181 21.8851 10.827C21.8851 10.436 22.0405 10.0609 22.317 9.78441C22.5935 9.50789 22.9685 9.35254 23.3596 9.35254C23.7507 9.35254 24.1257 9.50789 24.4022 9.78441C24.6787 10.0609 24.8341 10.436 24.8341 10.827Z" fill="#A8DADC"/>
</svg>
