<svg width="241" height="204" viewBox="0 0 241 204" fill="none" xmlns="http://www.w3.org/2000/svg">
<g clip-path="url(#clip0_46_30)">
<path d="M33.6275 95.9054C28.6794 112.5 26.6176 129.828 27.5323 147.134C27.9371 154.999 29.155 163.544 34.1191 169.955C38.7018 175.855 46.1223 177.815 53.283 176.362C60.9903 174.786 67.803 170.428 73.912 165.666C81.093 159.843 87.56 153.189 93.1786 145.844C104.251 131.563 113.981 116.287 122.245 100.209C126.955 91.2145 131.239 82.0118 135.098 72.601C137.09 68.2499 138.747 63.7514 140.052 59.1453C141.004 55.0543 141.231 50.3234 137.879 47.2465C137.379 46.7937 136.532 47.1343 136.079 47.4323C127.78 52.7023 121.462 60.3266 116.408 68.6774C111.721 76.5338 107.714 84.7779 104.43 93.3199C101.141 101.806 98.5275 110.54 96.6144 119.441C94.5189 128.293 93.313 137.334 93.0148 146.43C92.9654 154.267 95.3004 163.004 103.136 166.329C111.637 169.972 120.758 161.973 126.456 156.577C133.573 149.86 139.132 141.694 144.405 133.519C149.954 124.937 155.198 116.265 160.324 107.48C171.929 87.5341 182.7 67.1252 193.403 46.6811C193.861 45.8177 193.923 44.5929 192.682 44.6016C191.442 44.6103 190.193 46.1539 189.592 47.1377C180.607 64.1687 171.673 81.2307 162.163 98.0431C157.499 106.322 152.71 114.523 147.757 122.639C143.027 130.657 137.877 138.418 132.327 145.89C129.623 149.467 126.578 152.772 123.237 155.76C120.216 158.408 116.605 161.457 112.54 162.431C104.526 164.463 98.8274 156.574 97.642 149.679C97.0818 145.535 97.0812 141.334 97.6402 137.192C98.0694 132.886 98.6444 128.614 99.3651 124.376C100.837 116.03 102.928 107.806 105.621 99.7739C108.669 90.689 112.503 81.8888 117.078 73.4733C121.745 64.8494 127.535 56.4299 135.94 51.0787L134.14 51.2644C137.024 53.9152 136.734 57.9206 135.795 61.4096C134.615 65.2504 133.196 69.0133 131.547 72.6765C128.363 80.5219 124.865 88.23 121.053 95.801C113.567 110.788 104.896 125.149 95.1217 138.747C90.2204 145.711 84.6669 152.191 78.5363 158.098C72.9487 163.347 66.5356 168.346 59.2672 170.975C52.8635 173.267 45.561 173.419 40.1361 168.716C34.3354 163.685 32.4098 155.379 31.7177 148.052C30.1985 130.003 32.1179 111.838 37.3739 94.5212C37.6863 93.499 37.0036 93.0037 36.0183 93.3216C35.4472 93.5539 34.9336 93.9077 34.513 94.3587C34.0924 94.8097 33.775 95.347 33.5827 95.9334L33.6275 95.9054Z" fill="#1D3557"/>
<path d="M175.762 59.9469C184.231 49.7789 192.635 39.5575 201.15 29.4387L198.091 29.2543C194.759 41.964 192.074 54.8631 189.914 67.8558C189.732 68.9373 190.997 68.742 191.605 68.5188C192.143 68.2712 192.622 67.9132 193.012 67.4681C193.403 67.023 193.695 66.5005 193.871 65.9346C196.288 53.1557 199.23 40.3932 202.227 27.7207C202.788 25.373 199.999 26.5193 199.169 27.5363C190.797 37.7844 182.303 47.9369 173.867 58.1316C173.377 58.7185 172.222 60.188 173.043 60.9558C173.865 61.7236 175.332 60.4806 175.796 59.9259L175.762 59.9469Z" fill="#1D3557"/>
</g>
<defs>
<clipPath id="clip0_46_30">
<rect width="218.505" height="103.068" fill="white" transform="translate(0.0977783 115.631) rotate(-31.9509)"/>
</clipPath>
</defs>
</svg>
