<svg width="32" height="25" viewBox="0 0 32 25" fill="none" xmlns="http://www.w3.org/2000/svg">
<path d="M28.2916 6.7171C28.3104 6.98043 28.3104 7.24375 28.3104 7.50951C28.3104 15.6071 21.9353 24.9462 10.2779 24.9462V24.9413C6.83433 24.9462 3.46225 23.9924 0.563293 22.194C1.06402 22.2522 1.56726 22.2813 2.07175 22.2826C4.92553 22.285 7.69774 21.3591 9.94286 19.6541C7.23089 19.6044 4.85274 17.8946 4.02196 15.3984C4.97197 15.5756 5.95083 15.5392 6.88327 15.2928C3.92658 14.7152 1.79943 12.2033 1.79943 9.28606C1.79943 9.25936 1.79943 9.23388 1.79943 9.2084C2.68041 9.68287 3.66681 9.9462 4.6758 9.97532C1.89104 8.17571 1.03265 4.59349 2.71429 1.79275C5.93201 5.62131 10.6795 7.94879 15.7759 8.19513C15.2651 6.06667 15.9629 3.83627 17.6094 2.34003C20.162 0.0198377 24.1766 0.13876 26.5761 2.60579C27.9955 2.33518 29.3558 1.83158 30.6007 1.11805C30.1276 2.53662 29.1375 3.74162 27.8147 4.50733C29.071 4.36414 30.2983 4.03892 31.4541 3.5426C30.6033 4.77551 29.5315 5.84945 28.2916 6.7171Z" fill="#A8DADC"/>
</svg>
