<svg width="41" height="41" viewBox="0 0 41 41" fill="none" xmlns="http://www.w3.org/2000/svg">
<path d="M30.75 20.5L41 10.25L30.75 0V6.15H22.55V14.35H30.75V20.5ZM34.85 29.725C32.2875 29.725 29.8275 29.315 27.5315 28.5565C26.814 28.331 26.0145 28.495 25.4405 29.0485L20.9305 33.5585C15.129 30.6065 10.373 25.871 7.421 20.049L11.931 15.5185C12.505 14.9855 12.669 14.186 12.4435 13.4685C11.685 11.1725 11.275 8.7125 11.275 6.15C11.275 5.0225 10.3525 4.1 9.225 4.1H2.05C0.9225 4.1 0 5.0225 0 6.15C0 25.3995 15.6005 41 34.85 41C35.9775 41 36.9 40.0775 36.9 38.95V31.775C36.9 30.6475 35.9775 29.725 34.85 29.725Z" fill="#F1FAEE"/>
</svg>
