<svg width="176" height="176" viewBox="0 0 176 176" fill="none" xmlns="http://www.w3.org/2000/svg">
<g clip-path="url(#clip0_49_152)">
<path fill-rule="evenodd" clip-rule="evenodd" d="M61.1177 85.7586C59.5465 86.5085 57.9758 87.2756 56.6903 87.9969C33.6935 100.742 12.4101 120.708 0.411746 144.116C-0.0167664 144.969 0.268909 146.019 1.12593 146.457C1.98296 146.896 2.98366 146.559 3.41217 145.705C15.2677 122.892 35.9791 103.459 58.4046 91.0365C59.1188 90.6251 59.9761 90.198 60.8332 89.7652C60.976 91.8864 61.6899 93.6333 62.6898 95.0417C64.261 97.1299 66.6889 98.5483 69.5457 99.3354C73.5451 100.422 78.2582 100.302 82.5434 99.3082C85.8286 98.5112 88.8285 97.1485 90.6854 95.4673C92.2566 94.1118 93.1133 92.5291 93.2562 90.8608C93.399 89.1039 92.6857 87.1527 90.5431 85.193C86.9722 81.792 82.1148 80.7822 76.8298 81.2136C72.9732 81.5335 68.9743 82.6505 65.2606 84.0389C65.6891 82.879 66.2607 81.6264 66.9749 80.2751C72.6884 70.1236 86.4 60.5592 102.541 52.6317C127.109 40.5934 157.391 32.4345 174.245 32.3531C175.102 32.3488 175.96 31.5661 175.96 30.6062C175.96 29.6463 175.102 28.8707 174.245 28.875C156.962 28.9579 126.109 37.2196 100.97 49.5093C84.1151 57.8011 69.8308 67.9697 63.9745 78.5896C62.5461 81.2607 61.5462 83.6432 61.1177 85.7586ZM64.2604 88.1769C64.1176 90.1323 64.5458 91.7078 65.4028 92.9534C66.5455 94.4603 68.4024 95.4145 70.4022 95.9815C73.8303 96.9243 77.9731 96.7857 81.6869 95.923C84.258 95.3045 86.6856 94.3189 88.2569 93.0377C89.1139 92.3135 89.6861 91.5264 89.8289 90.618C89.8289 89.691 89.2567 88.7482 88.2569 87.7141C85.2573 84.9887 81.2581 84.3346 77.1158 84.6802C72.8307 85.0402 68.117 86.5 64.2604 88.1769Z" fill="#1D3557"/>
<path fill-rule="evenodd" clip-rule="evenodd" d="M3.37309 145.539C6.94403 136.156 7.65906 125.146 6.37352 115.219C6.23068 114.266 5.37393 113.589 4.51691 113.709C3.51704 113.827 2.80202 114.697 2.94486 115.649C4.08756 125.029 3.51621 135.434 0.0881058 144.3C-0.197569 145.197 0.231222 146.203 1.08825 146.546C2.08811 146.887 3.08742 146.436 3.37309 145.539Z" fill="#1D3557"/>
<path fill-rule="evenodd" clip-rule="evenodd" d="M3.32321 146.036C9.46523 138.626 19.8932 135.596 29.1777 134.434C30.0347 134.314 30.7489 133.442 30.606 132.49C30.4632 131.538 29.6056 130.863 28.6057 130.983C18.6071 132.251 7.3235 135.748 0.610134 143.831C0.0387836 144.574 0.1819 145.669 0.896088 146.278C1.61028 146.888 2.75186 146.778 3.32321 146.036Z" fill="#1D3557"/>
</g>
<defs>
<clipPath id="clip0_49_152">
<rect width="176" height="176" fill="white"/>
</clipPath>
</defs>
</svg>
