<?xml version="1.0" encoding="utf-8"?>
<!-- Generator: Adobe Illustrator 24.1.3, SVG Export Plug-In . SVG Version: 6.00 Build 0)  -->
<svg version="1.1" id="Layer_1" xmlns="http://www.w3.org/2000/svg" xmlns:xlink="http://www.w3.org/1999/xlink" x="0px" y="0px"
	 viewBox="0 0 200 200" style="enable-background:new 0 0 200 200;" xml:space="preserve">
<style type="text/css">
	.st0{fill:#E63946;}
	.st1{fill:#1D3557;}
	.st2{fill:#F1FAEE;}
	.st3{fill:none;stroke:#E63946;stroke-width:5;stroke-miterlimit:10;}
	.st4{fill:none;stroke:#F1FAEE;stroke-width:5;stroke-miterlimit:10;}
	.st5{fill:#457B9D;}
	.st6{fill:#A8DADC;}
</style>
<g>
	<g>
		<rect x="0.5" y="0.5" class="st2" width="199.5" height="199.5"/>
		<path class="st1" d="M191.09,9.41v181.69H9.41V9.41H191.09 M200,0.5H0.5V200H200V0.5L200,0.5z"/>
	</g>
	<path class="st0" d="M39.69,51.22v88.24h30.17c2.36,9.11-0.49,24.06-0.49,24.06c6.01-4,20.33-19.1,24.98-24.06h66.47V51.22H39.69z
		 M69.77,105.77c-5.76,0-10.43-4.67-10.43-10.43c0-5.76,4.67-10.43,10.43-10.43S80.2,89.58,80.2,95.34
		C80.2,101.1,75.53,105.77,69.77,105.77z M100.25,105.77c-5.76,0-10.43-4.67-10.43-10.43c0-5.76,4.67-10.43,10.43-10.43
		s10.43,4.67,10.43,10.43C110.68,101.1,106.01,105.77,100.25,105.77z M130.73,105.77c-5.76,0-10.43-4.67-10.43-10.43
		c0-5.76,4.67-10.43,10.43-10.43c5.76,0,10.43,4.67,10.43,10.43C141.16,101.1,136.49,105.77,130.73,105.77z"/>
</g>
</svg>
